<svg viewBox="0 0 24 22" xmlns="http://www.w3.org/2000/svg">
    <path d="M20.0354 2.81949H3.97254C2.86822 2.81949 1.96469 3.65074 1.96469 4.66671V17.5973C1.96469 18.6132 2.86822 19.4445 3.97254 19.4445H20.0354C21.1397 19.4445 22.0432 18.6132 22.0432 17.5973V4.66671C22.0432 3.65074 21.1397 2.81949 20.0354 2.81949ZM8.99218 15.75H5.98039C5.42823 15.75 4.97647 15.3344 4.97647 14.8264C4.97647 14.3184 5.42823 13.9028 5.98039 13.9028H8.99218C9.54434 13.9028 9.9961 14.3184 9.9961 14.8264C9.9961 15.3344 9.54434 15.75 8.99218 15.75ZM8.99218 12.0556H5.98039C5.42823 12.0556 4.97647 11.6399 4.97647 11.132C4.97647 10.624 5.42823 10.2084 5.98039 10.2084H8.99218C9.54434 10.2084 9.9961 10.624 9.9961 11.132C9.9961 11.6399 9.54434 12.0556 8.99218 12.0556ZM8.99218 8.36115H5.98039C5.42823 8.36115 4.97647 7.94552 4.97647 7.43753C4.97647 6.92955 5.42823 6.51392 5.98039 6.51392H8.99218C9.54434 6.51392 9.9961 6.92955 9.9961 7.43753C9.9961 7.94552 9.54434 8.36115 8.99218 8.36115ZM18.7303 10.3192L15.5479 13.247C15.1563 13.6072 14.5139 13.6072 14.1223 13.247L12.7068 11.9355C12.3152 11.5753 12.3152 10.9934 12.7068 10.6332C13.0983 10.273 13.7308 10.273 14.1223 10.6332L14.8351 11.289L17.3148 9.00763C17.7063 8.64742 18.3388 8.64742 18.7303 9.00763L18.7404 9.01687C19.1219 9.37708 19.1219 9.96819 18.7303 10.3192Z"
          fill="currentColor"/>
</svg>
