<svg xmlns="http://www.w3.org/2000/svg">
    <symbol id="delete" viewBox="0 0 24 24">
        <path d="M 10.806641 2 C 10.289641 2 9.7956875 2.2043125 9.4296875 2.5703125 L 9 3 L 4 3 A 1.0001 1.0001 0 1 0 4 5 L 20 5 A 1.0001 1.0001 0 1 0 20 3 L 15 3 L 14.570312 2.5703125 C 14.205312 2.2043125 13.710359 2 13.193359 2 L 10.806641 2 z M 4.3652344 7 L 5.8925781 20.263672 C 6.0245781 21.253672 6.877 22 7.875 22 L 16.123047 22 C 17.121047 22 17.974422 21.254859 18.107422 20.255859 L 19.634766 7 L 4.3652344 7 z"
              fill="currentColor"/>
    </symbol>
    <symbol id="dashboard" viewBox="0 0 24 22">
        <path d="M20.0354 2.81949H3.97254C2.86822 2.81949 1.96469 3.65074 1.96469 4.66671V17.5973C1.96469 18.6132 2.86822 19.4445 3.97254 19.4445H20.0354C21.1397 19.4445 22.0432 18.6132 22.0432 17.5973V4.66671C22.0432 3.65074 21.1397 2.81949 20.0354 2.81949ZM8.99218 15.75H5.98039C5.42823 15.75 4.97647 15.3344 4.97647 14.8264C4.97647 14.3184 5.42823 13.9028 5.98039 13.9028H8.99218C9.54434 13.9028 9.9961 14.3184 9.9961 14.8264C9.9961 15.3344 9.54434 15.75 8.99218 15.75ZM8.99218 12.0556H5.98039C5.42823 12.0556 4.97647 11.6399 4.97647 11.132C4.97647 10.624 5.42823 10.2084 5.98039 10.2084H8.99218C9.54434 10.2084 9.9961 10.624 9.9961 11.132C9.9961 11.6399 9.54434 12.0556 8.99218 12.0556ZM8.99218 8.36115H5.98039C5.42823 8.36115 4.97647 7.94552 4.97647 7.43753C4.97647 6.92955 5.42823 6.51392 5.98039 6.51392H8.99218C9.54434 6.51392 9.9961 6.92955 9.9961 7.43753C9.9961 7.94552 9.54434 8.36115 8.99218 8.36115ZM18.7303 10.3192L15.5479 13.247C15.1563 13.6072 14.5139 13.6072 14.1223 13.247L12.7068 11.9355C12.3152 11.5753 12.3152 10.9934 12.7068 10.6332C13.0983 10.273 13.7308 10.273 14.1223 10.6332L14.8351 11.289L17.3148 9.00763C17.7063 8.64742 18.3388 8.64742 18.7303 9.00763L18.7404 9.01687C19.1219 9.37708 19.1219 9.96819 18.7303 10.3192Z"
              fill="currentColor"/>
    </symbol>
    <symbol id="user" viewBox="0 0 24 22">
        <path d="M10.9871 7.30558C10.9871 8.83878 9.65187 10.0764 7.98535 10.0764C6.31883 10.0764 4.97357 8.83878 4.97357 7.30558C4.97357 5.77238 6.31883 4.53474 7.98535 4.53474C9.65187 4.53474 10.9871 5.77238 10.9871 7.30558ZM19.0185 7.30558C19.0185 8.83878 17.6833 10.0764 16.0168 10.0764C14.3503 10.0764 13.005 8.83878 13.005 7.30558C13.005 5.77238 14.3503 4.53474 16.0168 4.53474C17.6833 4.53474 19.0185 5.77238 19.0185 7.30558ZM7.9854 11.9236C5.64625 11.9236 0.957902 13.0042 0.957902 15.1562V16.5416C0.957902 17.0496 1.40967 17.4652 1.96183 17.4652H14.009C14.5611 17.4652 15.0129 17.0496 15.0129 16.5416V15.1562C15.0129 13.0042 10.3246 11.9236 7.9854 11.9236ZM15.043 11.9698C15.3944 11.9421 15.7257 11.9236 16.0168 11.9236C18.356 11.9236 23.0443 13.0042 23.0443 15.1562V16.5416C23.0443 17.0496 22.5925 17.4652 22.0404 17.4652H16.84C16.9505 17.1789 17.0207 16.8649 17.0207 16.5416V15.1562C17.0207 13.7985 16.2276 12.7733 15.0832 12.0067C15.0801 12.0039 15.0771 12.0002 15.0738 11.9963C15.0661 11.9872 15.057 11.9763 15.043 11.9698Z"
              fill="currentColor"/>
    </symbol>
</svg>