<svg xmlns="http://www.w3.org/2000/svg" viewBox="0 0 24 22">
    <path d="M10.9871 7.30558C10.9871 8.83878 9.65187 10.0764 7.98535 10.0764C6.31883 10.0764 4.97357 8.83878 4.97357 7.30558C4.97357 5.77238 6.31883 4.53474 7.98535 4.53474C9.65187 4.53474 10.9871 5.77238 10.9871 7.30558ZM19.0185 7.30558C19.0185 8.83878 17.6833 10.0764 16.0168 10.0764C14.3503 10.0764 13.005 8.83878 13.005 7.30558C13.005 5.77238 14.3503 4.53474 16.0168 4.53474C17.6833 4.53474 19.0185 5.77238 19.0185 7.30558ZM7.9854 11.9236C5.64625 11.9236 0.957902 13.0042 0.957902 15.1562V16.5416C0.957902 17.0496 1.40967 17.4652 1.96183 17.4652H14.009C14.5611 17.4652 15.0129 17.0496 15.0129 16.5416V15.1562C15.0129 13.0042 10.3246 11.9236 7.9854 11.9236ZM15.043 11.9698C15.3944 11.9421 15.7257 11.9236 16.0168 11.9236C18.356 11.9236 23.0443 13.0042 23.0443 15.1562V16.5416C23.0443 17.0496 22.5925 17.4652 22.0404 17.4652H16.84C16.9505 17.1789 17.0207 16.8649 17.0207 16.5416V15.1562C17.0207 13.7985 16.2276 12.7733 15.0832 12.0067C15.0801 12.0039 15.0771 12.0002 15.0738 11.9963C15.0661 11.9872 15.057 11.9763 15.043 11.9698Z"
          fill="currentColor"/>
</svg>
